# xmcd
#
# Track frame offsets: 
#        150
#        7670
#        26500
#        38405
#        60295
#        77379
#        96345
#        98420
#        116557
#        130632
#        141325
#        161300
#        173170
#
# Disc length: 2607 seconds
#
# Revision: 2
# Processed by: cddbd v1.5.2PL0 Copyright (c) Steve Scherf et al.
# Submitted via: ExactAudioCopy v0.99pb4
#
DISCID=840a2d0d
DTITLE=Treklangen - Evankeliumijuna
DYEAR=1976
DGENRE=Gospel
TTITLE0=Evankeliumijuna
TTITLE1=Vielä sydämmessäin on
TTITLE2=Kun oven avasin
TTITLE3=Tanja
TTITLE4=Jos joku tähti olla haluaa
TTITLE5=More precious than ever is Jesus
TTITLE6=Rakkaus
TTITLE7=Jotain tapahtui
TTITLE8=Paljon nyt tilaa on vielä
TTITLE9=Got a reson for living again
TTITLE10=Levätä saan
TTITLE11=Uusi hyvä maa
TTITLE12=Sua kohti Herrani
EXTD=
EXTT0=
EXTT1=
EXTT2=
EXTT3=
EXTT4=
EXTT5=
EXTT6=
EXTT7=
EXTT8=
EXTT9=
EXTT10=
EXTT11=
EXTT12=
PLAYORDER=
